<?xml version="1.0" encoding="utf-8"?>
<!-- Generated by Mocodo 4.0.14 -->
<svg width="806" height="188" viewBox="0 0 806 188" xmlns="http://www.w3.org/2000/svg">
<rect x="0" y="0" width="806" height="188" fill="#f7f7f7" stroke="none" stroke-width="0"/>

<!-- Entity PLAYER -->
<g>
	<g>
		<rect x="41" y="52" width="96" height="25" fill="#b8e186" stroke="none" stroke-width="0" opacity="1"/>
		<rect x="41" y="77" width="96" height="59" fill="#e6f5d0" stroke="none" stroke-width="0" opacity="1"/>
		<rect x="41" y="52" width="96" height="84" fill="none" stroke="#7fbc41" stroke-width="2" opacity="1"/>
		<line x1="41" y1="77" x2="137" y2="77" stroke="#7fbc41" stroke-width="1"/>
	</g>
	<text x="70" y="69.75" fill="#000000" font-family="Verdana" font-size="12">player</text>
	<text x="46" y="94.8" fill="#000000" font-family="Verdana" font-size="12">id</text>
	<line x1="46" y1="97" x2="58" y2="97" stroke="#000000" stroke-width="1"/>
	<text x="46" y="111.8" fill="#000000" font-family="Verdana" font-size="12">name</text>
	<text x="46" y="128.8" fill="#000000" font-family="Verdana" font-size="12">is_goalkeeper</text>
</g>

<!-- Entity SHOOT -->
<g>
	<g>
		<rect x="201" y="35" width="88" height="25" fill="#b8e186" stroke="none" stroke-width="0" opacity="1"/>
		<rect x="201" y="60" width="88" height="93" fill="#e6f5d0" stroke="none" stroke-width="0" opacity="1"/>
		<rect x="201" y="35" width="88" height="118" fill="none" stroke="#7fbc41" stroke-width="2" opacity="1"/>
		<line x1="201" y1="60" x2="289" y2="60" stroke="#7fbc41" stroke-width="1"/>
	</g>
	<text x="228" y="52.75" fill="#000000" font-family="Verdana" font-size="12">shoot</text>
	<text x="206" y="77.8" fill="#000000" font-family="Verdana" font-size="12">id</text>
	<line x1="206" y1="80" x2="218" y2="80" stroke="#000000" stroke-width="1"/>
	<text x="206" y="94.8" fill="#000000" font-family="Verdana" font-size="12">is_goal</text>
	<text x="206" y="111.8" fill="#000000" font-family="Verdana" font-size="12">#shooter</text>
	<text x="206" y="128.8" fill="#000000" font-family="Verdana" font-size="12">#goalkeeper</text>
	<text x="206" y="145.8" fill="#000000" font-family="Verdana" font-size="12">#match_id</text>
</g>

<!-- Entity MATCH -->
<g>
	<g>
		<rect x="353" y="60" width="104" height="25" fill="#b8e186" stroke="none" stroke-width="0" opacity="1"/>
		<rect x="353" y="85" width="104" height="43" fill="#e6f5d0" stroke="none" stroke-width="0" opacity="1"/>
		<rect x="353" y="60" width="104" height="68" fill="none" stroke="#7fbc41" stroke-width="2" opacity="1"/>
		<line x1="353" y1="85" x2="457" y2="85" stroke="#7fbc41" stroke-width="1"/>
	</g>
	<text x="386" y="77.75" fill="#000000" font-family="Verdana" font-size="12">match</text>
	<text x="358" y="102.8" fill="#000000" font-family="Verdana" font-size="12">id</text>
	<line x1="358" y1="105" x2="370" y2="105" stroke="#000000" stroke-width="1"/>
	<text x="358" y="119.8" fill="#000000" font-family="Verdana" font-size="12">players_victory</text>
</g>

<!-- Entity ROLE -->
<g>
	<g>
		<rect x="585" y="60" width="40" height="25" fill="#b8e186" stroke="none" stroke-width="0" opacity="1"/>
		<rect x="585" y="85" width="40" height="43" fill="#e6f5d0" stroke="none" stroke-width="0" opacity="1"/>
		<rect x="585" y="60" width="40" height="68" fill="none" stroke="#7fbc41" stroke-width="2" opacity="1"/>
		<line x1="585" y1="85" x2="625" y2="85" stroke="#7fbc41" stroke-width="1"/>
	</g>
	<text x="593" y="77.75" fill="#000000" font-family="Verdana" font-size="12">role</text>
	<text x="590" y="102.8" fill="#000000" font-family="Verdana" font-size="12">id</text>
	<line x1="590" y1="105" x2="602" y2="105" stroke="#000000" stroke-width="1"/>
	<text x="590" y="119.8" fill="#000000" font-family="Verdana" font-size="12">label</text>
</g>

<!-- Entity USER -->
<g>
	<g>
		<rect x="689" y="9" width="76" height="25" fill="#b8e186" stroke="none" stroke-width="0" opacity="1"/>
		<rect x="689" y="34" width="76" height="145" fill="#e6f5d0" stroke="none" stroke-width="0" opacity="1"/>
		<rect x="689" y="9" width="76" height="170" fill="none" stroke="#7fbc41" stroke-width="2" opacity="1"/>
		<line x1="689" y1="34" x2="765" y2="34" stroke="#7fbc41" stroke-width="1"/>
	</g>
	<text x="714" y="26.75" fill="#000000" font-family="Verdana" font-size="12">user</text>
	<text x="694" y="51.8" fill="#000000" font-family="Verdana" font-size="12">id</text>
	<line x1="694" y1="54" x2="706" y2="54" stroke="#000000" stroke-width="1"/>
	<text x="694" y="68.8" fill="#000000" font-family="Verdana" font-size="12">username</text>
	<text x="694" y="85.8" fill="#000000" font-family="Verdana" font-size="12">first_name</text>
	<text x="694" y="102.8" fill="#000000" font-family="Verdana" font-size="12">last_name</text>
	<text x="694" y="119.8" fill="#000000" font-family="Verdana" font-size="12">email</text>
	<text x="694" y="136.8" fill="#000000" font-family="Verdana" font-size="12">password</text>
	<text x="694" y="153.8" fill="#000000" font-family="Verdana" font-size="12">avatar</text>
	<text x="694" y="170.8" fill="#000000" font-family="Verdana" font-size="12">#role_id</text>
</g>

<!-- Link from &quot;id&quot; (SHOOT) to &quot;id&quot; (PLAYER) -->
<path d="M201 107.5 C169 99 179.67 90.5 137 90.5" fill="none" stroke="#de77ae" stroke-width="2"/>
<polygon points="137 90.5 149 84.5 145 90.5 149 96.5" fill="#de77ae" stroke-width="0"/>
<circle cx="201" cy="107.5" r="2" stroke="#de77ae" stroke-width="2" fill="#de77ae"/>

<!-- Link from &quot;id&quot; (SHOOT) to &quot;id&quot; (PLAYER) -->
<path d="M201 124.5 C169 107.5 179.67 90.5 137 90.5" fill="none" stroke="#de77ae" stroke-width="2"/>
<polygon points="137 90.5 149 84.5 145 90.5 149 96.5" fill="#de77ae" stroke-width="0"/>
<circle cx="201" cy="124.5" r="2" stroke="#de77ae" stroke-width="2" fill="#de77ae"/>

<!-- Link from &quot;id&quot; (SHOOT) to &quot;id&quot; (MATCH) -->
<path d="M289 141.5 C321 120 310.33 98.5 353 98.5" fill="none" stroke="#de77ae" stroke-width="2"/>
<polygon points="353 98.5 341 104.5 345 98.5 341 92.5" fill="#de77ae" stroke-width="0"/>
<circle cx="289" cy="141.5" r="2" stroke="#de77ae" stroke-width="2" fill="#de77ae"/>

<!-- Link from &quot;id&quot; (USER) to &quot;id&quot; (ROLE) -->
<path d="M689 166.5 C657 132.5 667.67 98.5 625 98.5" fill="none" stroke="#de77ae" stroke-width="2"/>
<polygon points="625 98.5 637 92.5 633 98.5 637 104.5" fill="#de77ae" stroke-width="0"/>
<circle cx="689" cy="166.5" r="2" stroke="#de77ae" stroke-width="2" fill="#de77ae"/>
</svg>